<svg width="126" height="48" viewBox="0 0 126 48" fill="none" xmlns="http://www.w3.org/2000/svg">
<path d="M49 17.1818V22.8636H34.625V17.1818H49ZM37.4091 11.9545H45.25V31.983C45.25 32.286 45.3021 32.5417 45.4062 32.75C45.5104 32.9489 45.6714 33.1004 45.8892 33.2045C46.107 33.2992 46.3864 33.3466 46.7273 33.3466C46.964 33.3466 47.2386 33.3182 47.5511 33.2614C47.8731 33.2045 48.1098 33.1572 48.2614 33.1193L49.3977 38.6307C49.0473 38.7348 48.5455 38.8627 47.892 39.0142C47.2481 39.1657 46.4811 39.2652 45.5909 39.3125C43.7917 39.4072 42.2813 39.2225 41.0597 38.7585C39.8381 38.285 38.9195 37.5417 38.304 36.5284C37.6884 35.5152 37.3902 34.2462 37.4091 32.7216V11.9545ZM62.4766 39.3977C60.1091 39.3977 58.0826 38.929 56.397 37.9915C54.7114 37.0445 53.4188 35.7282 52.5192 34.0426C51.6196 32.3475 51.1697 30.3826 51.1697 28.1477C51.1697 25.9129 51.6196 23.9527 52.5192 22.267C53.4188 20.572 54.7114 19.2557 56.397 18.3182C58.0826 17.3712 60.1091 16.8977 62.4766 16.8977C64.844 16.8977 66.8705 17.3712 68.5561 18.3182C70.2417 19.2557 71.5343 20.572 72.4339 22.267C73.3336 23.9527 73.7834 25.9129 73.7834 28.1477C73.7834 30.3826 73.3336 32.3475 72.4339 34.0426C71.5343 35.7282 70.2417 37.0445 68.5561 37.9915C66.8705 38.929 64.844 39.3977 62.4766 39.3977ZM62.5334 33.6023C63.1963 33.6023 63.7692 33.3797 64.2521 32.9347C64.7351 32.4896 65.1091 31.8551 65.3743 31.0312C65.6394 30.2074 65.772 29.2273 65.772 28.0909C65.772 26.9451 65.6394 25.965 65.3743 25.1506C65.1091 24.3267 64.7351 23.6922 64.2521 23.2472C63.7692 22.8021 63.1963 22.5795 62.5334 22.5795C61.8326 22.5795 61.2313 22.8021 60.7294 23.2472C60.2275 23.6922 59.844 24.3267 59.5788 25.1506C59.3137 25.965 59.1811 26.9451 59.1811 28.0909C59.1811 29.2273 59.3137 30.2074 59.5788 31.0312C59.844 31.8551 60.2275 32.4896 60.7294 32.9347C61.2313 33.3797 61.8326 33.6023 62.5334 33.6023Z" fill="#4EA8DE"/>
<path d="M84.8629 39.2841C83.3099 39.2841 81.88 38.8769 80.5732 38.0625C79.2758 37.2481 78.2341 36.0123 77.4482 34.3551C76.6716 32.6979 76.2834 30.6098 76.2834 28.0909C76.2834 25.4583 76.6906 23.3182 77.505 21.6705C78.3288 20.0227 79.3894 18.8153 80.6868 18.0483C81.9936 17.2812 83.3667 16.8977 84.8061 16.8977C85.8857 16.8977 86.8326 17.0871 87.647 17.4659C88.4614 17.8352 89.1432 18.3324 89.6925 18.9574C90.2417 19.5729 90.6584 20.25 90.9425 20.9886H91.0561V9.90909H98.897V39H91.1129V35.4205H90.9425C90.6394 36.1591 90.2038 36.822 89.6357 37.4091C89.0769 37.9867 88.3951 38.446 87.5902 38.7869C86.7947 39.1184 85.8857 39.2841 84.8629 39.2841ZM87.7607 33.2614C88.4804 33.2614 89.0959 33.053 89.6072 32.6364C90.1281 32.2102 90.5258 31.6136 90.8004 30.8466C91.0845 30.0701 91.2266 29.1515 91.2266 28.0909C91.2266 27.0114 91.0845 26.0881 90.8004 25.321C90.5258 24.5445 90.1281 23.9527 89.6072 23.5455C89.0959 23.1288 88.4804 22.9205 87.7607 22.9205C87.041 22.9205 86.4254 23.1288 85.9141 23.5455C85.4122 23.9527 85.0239 24.5445 84.7493 25.321C84.4841 26.0881 84.3516 27.0114 84.3516 28.0909C84.3516 29.1705 84.4841 30.0985 84.7493 30.875C85.0239 31.642 85.4122 32.2339 85.9141 32.6506C86.4254 33.0578 87.041 33.2614 87.7607 33.2614ZM113.258 39.3977C110.89 39.3977 108.864 38.929 107.178 37.9915C105.493 37.0445 104.2 35.7282 103.3 34.0426C102.401 32.3475 101.951 30.3826 101.951 28.1477C101.951 25.9129 102.401 23.9527 103.3 22.267C104.2 20.572 105.493 19.2557 107.178 18.3182C108.864 17.3712 110.89 16.8977 113.258 16.8977C115.625 16.8977 117.652 17.3712 119.337 18.3182C121.023 19.2557 122.316 20.572 123.215 22.267C124.115 23.9527 124.565 25.9129 124.565 28.1477C124.565 30.3826 124.115 32.3475 123.215 34.0426C122.316 35.7282 121.023 37.0445 119.337 37.9915C117.652 38.929 115.625 39.3977 113.258 39.3977ZM113.315 33.6023C113.978 33.6023 114.55 33.3797 115.033 32.9347C115.516 32.4896 115.89 31.8551 116.156 31.0312C116.421 30.2074 116.553 29.2273 116.553 28.0909C116.553 26.9451 116.421 25.965 116.156 25.1506C115.89 24.3267 115.516 23.6922 115.033 23.2472C114.55 22.8021 113.978 22.5795 113.315 22.5795C112.614 22.5795 112.013 22.8021 111.511 23.2472C111.009 23.6922 110.625 24.3267 110.36 25.1506C110.095 25.965 109.962 26.9451 109.962 28.0909C109.962 29.2273 110.095 30.2074 110.36 31.0312C110.625 31.8551 111.009 32.4896 111.511 32.9347C112.013 33.3797 112.614 33.6023 113.315 33.6023Z" fill="#5E60CE"/>
<g clip-path="url(#clip0_4106_3713)">
<path d="M11.0209 12.933C14.1466 16.9011 15.8151 21.7944 15.7546 26.8155V28.0141L16.7859 28.6416C18.1183 29.4482 19.1121 30.6993 19.586 32.1669C19.1699 31.8605 18.7346 31.5803 18.2826 31.3278L15.5326 29.7838L15.0385 32.9001C14.9957 33.1755 14.9383 33.4485 14.8666 33.718H7.1609C7.04631 33.3655 6.95321 33.0129 6.86728 32.6463L6.24423 29.8261L3.70907 31.2362C3.28554 31.473 2.87662 31.7344 2.48446 32.0188C2.96763 30.5682 3.94062 29.3242 5.24163 28.4935L6.22274 27.866V26.7521C6.24044 21.7513 7.92906 16.8952 11.0281 12.933H11.0209ZM11.0281 10C10.8674 10.0004 10.7122 10.058 10.5912 10.1622L10.5268 10.2186C6.39717 14.7656 4.10405 20.6454 4.08147 26.745C2.32906 27.8643 1.0319 29.5543 0.416653 31.5197C-0.198589 33.485 -0.0927822 35.6007 0.715584 37.4971C1.56715 35.6455 2.9907 34.1058 4.78329 33.0975C4.96307 33.8642 5.20249 34.6161 5.49944 35.3467C5.5371 35.4871 5.62057 35.6114 5.73702 35.7006C5.85347 35.7898 5.99645 35.8388 6.14397 35.8402H16.0841C16.2846 35.8402 16.4851 35.6498 16.5854 35.3537C16.8752 34.6592 17.0772 33.9322 17.1869 33.1892C18.983 34.1932 20.4077 35.7342 21.2546 37.5887C22.1118 35.7017 22.2445 33.5727 21.6281 31.5967C21.0118 29.6206 19.6882 27.9319 17.9031 26.8437C17.9739 20.7082 15.6929 14.7718 11.5151 10.2186C11.4528 10.1501 11.3767 10.0952 11.2916 10.0576C11.2065 10.0199 11.1142 10.0003 11.0209 10H11.0281Z" fill="#4EA8DE"/>
<path d="M11.0201 26.1596C10.47 26.1596 9.93229 25.9993 9.47465 25.6988C9.017 25.3984 8.65994 24.9713 8.44847 24.4714C8.237 23.9714 8.18059 23.4211 8.28635 22.8896C8.39212 22.3582 8.65531 21.8695 9.04277 21.4851C9.43022 21.1007 9.9246 20.8378 10.4636 20.7296C11.0025 20.6214 11.562 20.6727 12.0714 20.8771C12.5808 21.0814 13.0173 21.4297 13.326 21.8779C13.6347 22.3261 13.8017 22.8543 13.8059 23.3958V23.3958C13.8145 23.7468 13.7527 24.0959 13.6242 24.4234C13.4956 24.7508 13.3028 25.0501 13.0567 25.3041C12.8107 25.5582 12.5162 25.762 12.1901 25.9039C11.864 26.0459 11.5126 26.1232 11.1562 26.1314C11.1111 26.1385 11.0652 26.1385 11.0201 26.1314V26.1596Z" fill="#4EA8DE"/>
<path d="M14.8952 37.5959C14.716 37.5903 14.5375 37.6199 14.3701 37.6831C14.2027 37.7463 14.0498 37.8418 13.9204 37.9639C13.791 38.0861 13.6876 38.2324 13.6165 38.3944C13.5453 38.5564 13.5077 38.7308 13.5059 38.9073V43.0671C13.5059 43.4299 13.6522 43.7778 13.9128 44.0343C14.1733 44.2908 14.5267 44.4349 14.8952 44.4349C15.2637 44.4349 15.617 44.2908 15.8776 44.0343C16.1381 43.7778 16.2845 43.4299 16.2845 43.0671V38.9637C16.2902 38.7879 16.2603 38.6127 16.1966 38.4483C16.1328 38.284 16.0365 38.1338 15.9132 38.0065C15.7899 37.8792 15.6421 37.7773 15.4783 37.7068C15.3146 37.6363 15.1383 37.5986 14.9596 37.5959H14.8952Z" fill="#5E60CE"/>
<path d="M7.16081 37.5956C6.97857 37.5861 6.79626 37.6128 6.62473 37.6741C6.45319 37.7354 6.29592 37.83 6.16229 37.9524C6.02866 38.0748 5.92139 38.2223 5.84687 38.3863C5.77235 38.5503 5.7321 38.7274 5.72852 38.907V43.0668C5.72852 43.4296 5.87489 43.7775 6.13544 44.034C6.39599 44.2905 6.74937 44.4346 7.11784 44.4346C7.48631 44.4346 7.83969 44.2905 8.10024 44.034C8.36079 43.7775 8.50716 43.4296 8.50716 43.0668V38.9634C8.51289 38.7876 8.483 38.6124 8.41925 38.4481C8.3555 38.2837 8.25916 38.1335 8.13585 38.0062C8.01253 37.8789 7.86471 37.777 7.701 37.7065C7.53728 37.636 7.36096 37.5983 7.18229 37.5956H7.16081Z" fill="#5E60CE"/>
<path d="M10.9206 37.596C10.7419 37.5923 10.5642 37.6232 10.3976 37.6871C10.2311 37.751 10.079 37.8466 9.94995 37.9683C9.82093 38.0901 9.71755 38.2357 9.64571 38.3969C9.57387 38.558 9.53497 38.7315 9.53125 38.9074V44.6395C9.53125 45.0022 9.67762 45.3502 9.93817 45.6067C10.1987 45.8632 10.5521 46.0073 10.9206 46.0073C11.289 46.0073 11.6424 45.8632 11.903 45.6067C12.1635 45.3502 12.3099 45.0022 12.3099 44.6395V38.9991C12.3156 38.8232 12.2857 38.648 12.222 38.4837C12.1582 38.3194 12.0619 38.1692 11.9386 38.0418C11.8153 37.9145 11.6674 37.8127 11.5037 37.7422C11.34 37.6717 11.1637 37.634 10.985 37.6313L10.9206 37.596Z" fill="#5E60CE"/>
</g>
<defs>
<clipPath id="clip0_4106_3713">
<rect width="22" height="36" fill="white" transform="translate(0 10)"/>
</clipPath>
</defs>
</svg>
